HIERARCHY
ROOT Hips
{
	OFFSET 0.000000 89.005402 0.000000
	CHANNELS 6 Xposition Yposition Zposition Xrotation Yrotation Zrotation
	JOINT Spine
	{
		OFFSET 0.116900 10.681000 0.373400
		CHANNELS 3 Xrotation Yrotation Zrotation
		JOINT Spine1
		{
			OFFSET 0.000000 13.840401 0.053500
			CHANNELS 3 Xrotation Yrotation Zrotation
			JOINT Spine2
			{
				OFFSET 0.000000 14.712700 -0.366200
				CHANNELS 3 Xrotation Yrotation Zrotation
				JOINT Neck
				{
					OFFSET 0.000000 35.415497 -3.314200
					CHANNELS 3 Xrotation Yrotation Zrotation
					JOINT Head
					{
						OFFSET 0.000000 16.899200 1.218300
						CHANNELS 3 Xrotation Yrotation Zrotation
						JOINT HeadTop_End
						{
							OFFSET 0.000000 22.206207 2.192500
							CHANNELS 3 Xrotation Yrotation Zrotation
							End Site
							{
								OFFSET 0.000000 22.314178 0.000000
							}
						}
					}
				}
				JOINT LeftShoulder
				{
					OFFSET 12.896400 26.716293 -4.548400
					CHANNELS 3 Xrotation Yrotation Zrotation
					JOINT LeftArm
					{
						OFFSET 19.027000 -4.857010 -1.718400
						CHANNELS 3 Xrotation Yrotation Zrotation
						JOINT LeftForeArm
						{
							OFFSET 24.179897 0.000000 0.000000
							CHANNELS 3 Xrotation Yrotation Zrotation
							JOINT LeftHand
							{
								OFFSET 27.156403 0.000000 0.000000
								CHANNELS 3 Xrotation Yrotation Zrotation
								JOINT LeftHandIndex1
								{
									OFFSET 16.441200 0.000000 0.000000
									CHANNELS 3 Xrotation Yrotation Zrotation
									JOINT LeftHandIndex2
									{
										OFFSET 4.821899 0.000000 0.000000
										CHANNELS 3 Xrotation Yrotation Zrotation
										JOINT LeftHandIndex3
										{
											OFFSET 6.386497 0.000000 0.000000
											CHANNELS 3 Xrotation Yrotation Zrotation
											JOINT LeftHandIndex4
											{
												OFFSET 5.188988 0.000000 0.000000
												CHANNELS 3 Xrotation Yrotation Zrotation
												End Site
												{
													OFFSET -0.178703 5.185913 0.000177
												}
											}
										}
									}
								}
								JOINT LeftHandThumb1
								{
									OFFSET 6.534897 -5.032593 5.900300
									CHANNELS 3 Xrotation Yrotation Zrotation
									JOINT LeftHandThumb2
									{
										OFFSET 3.818176 -2.204422 2.204423
										CHANNELS 3 Xrotation Yrotation Zrotation
										JOINT LeftHandThumb3
										{
											OFFSET 3.252098 -1.877594 1.877601
											CHANNELS 3 Xrotation Yrotation Zrotation
											JOINT LeftHandThumb4
											{
												OFFSET 5.251778 -3.032120 3.032117
												CHANNELS 3 Xrotation Yrotation Zrotation
												End Site
												{
													OFFSET 0.000023 6.780014 0.000000
												}
											}
										}
									}
								}
							}
						}
					}
				}
				JOINT RightShoulder
				{
					OFFSET -12.896300 26.716293 -4.548400
					CHANNELS 3 Xrotation Yrotation Zrotation
					JOINT RightArm
					{
						OFFSET -19.027000 -4.857010 -1.718400
						CHANNELS 3 Xrotation Yrotation Zrotation
						JOINT RightForeArm
						{
							OFFSET -24.179897 0.000000 0.000000
							CHANNELS 3 Xrotation Yrotation Zrotation
							JOINT RightHand
							{
								OFFSET -27.156403 0.000000 0.000000
								CHANNELS 3 Xrotation Yrotation Zrotation
								JOINT RightHandThumb1
								{
									OFFSET -6.591202 -4.852203 5.988100
									CHANNELS 3 Xrotation Yrotation Zrotation
									JOINT RightHandThumb2
									{
										OFFSET -3.818176 -2.204422 2.204423
										CHANNELS 3 Xrotation Yrotation Zrotation
										JOINT RightHandThumb3
										{
											OFFSET -3.252098 -1.877594 1.877601
											CHANNELS 3 Xrotation Yrotation Zrotation
											JOINT RightHandThumb4
											{
												OFFSET -5.251778 -3.032120 3.032117
												CHANNELS 3 Xrotation Yrotation Zrotation
												End Site
												{
													OFFSET -0.000023 6.780014 0.000000
												}
											}
										}
									}
								}
								JOINT RightHandIndex1
								{
									OFFSET -16.029404 0.000000 0.000000
									CHANNELS 3 Xrotation Yrotation Zrotation
									JOINT RightHandIndex2
									{
										OFFSET -5.213303 0.000000 0.000000
										CHANNELS 3 Xrotation Yrotation Zrotation
										JOINT RightHandIndex3
										{
											OFFSET -6.386528 0.000000 0.000000
											CHANNELS 3 Xrotation Yrotation Zrotation
											JOINT RightHandIndex4
											{
												OFFSET -5.189026 0.000000 0.000000
												CHANNELS 3 Xrotation Yrotation Zrotation
												End Site
												{
													OFFSET 0.236702 5.183624 0.001972
												}
											}
										}
									}
								}
							}
						}
					}
				}
			}
		}
	}
	JOINT LeftUpLeg
	{
		OFFSET 14.073000 -7.904099 -1.463000
		CHANNELS 3 Xrotation Yrotation Zrotation
		JOINT LeftLeg
		{
			OFFSET -0.109806 -34.073280 4.093200
			CHANNELS 3 Xrotation Yrotation Zrotation
			JOINT LeftFoot
			{
				OFFSET 0.109806 -29.899420 -6.319000
				CHANNELS 3 Xrotation Yrotation Zrotation
				JOINT LeftToeBase
				{
					OFFSET 1.551100 -14.988700 20.535801
					CHANNELS 3 Xrotation Yrotation Zrotation
					JOINT LeftToe_End
					{
						OFFSET 0.221200 0.570800 13.248301
						CHANNELS 3 Xrotation Yrotation Zrotation
						End Site
						{
							OFFSET 0.000000 13.262435 0.000000
						}
					}
				}
			}
		}
	}
	JOINT RightUpLeg
	{
		OFFSET -13.839300 -7.904099 -1.463000
		CHANNELS 3 Xrotation Yrotation Zrotation
		JOINT RightLeg
		{
			OFFSET 0.109694 -34.073219 4.093300
			CHANNELS 3 Xrotation Yrotation Zrotation
			JOINT RightFoot
			{
				OFFSET -0.109694 -29.899384 -6.319200
				CHANNELS 3 Xrotation Yrotation Zrotation
				JOINT RightToeBase
				{
					OFFSET -1.551100 -14.988700 20.535801
					CHANNELS 3 Xrotation Yrotation Zrotation
					JOINT RightToe_End
					{
						OFFSET -0.221200 0.570900 13.248299
						CHANNELS 3 Xrotation Yrotation Zrotation
						End Site
						{
							OFFSET 0.000000 13.262440 0.000000
						}
					}
				}
			}
		}
	}
}
MOTION
Frames: 5
Frame Time: 0.033333
0.763929 89.816299 -0.164639 -5.785944 39.798904 -0.139429 3.709635 2.254119 1.533024 -3.610155 1.873377 2.560932 -3.627350 1.925895 2.476567 6.600537 -17.958208 0.169867 1.595959 -17.550781 -1.363739 0.000000 -0.000000 -0.000000 3.723525 -3.486814 -0.633433 5.585056 -1.792099 -81.272988 -0.390886 -19.629940 -0.131391 -2.744640 2.125583 8.619713 1.188913 0.646895 -5.021760 -1.788730 1.903243 -16.720894 -1.609882 3.837780 -12.990763 -0.000002 -0.000000 0.000001 10.756258 -0.276899 15.889032 -0.880927 26.403032 -5.960068 -4.776540 4.322025 -1.682916 -0.000000 0.000002 0.000002 -0.153270 4.010042 0.285873 7.655140 7.116824 75.697566 -0.576449 18.419273 0.182098 -2.659311 -1.758242 7.468408 15.793952 -2.798727 -17.236677 -2.077416 -31.113018 7.338891 -6.633525 -3.817817 2.612789 0.000000 -0.000002 -0.000001 2.356172 -3.628213 8.330041 -2.168788 -2.442662 18.527826 -1.897782 -4.831423 14.310218 0.000001 0.000000 -0.000001 -24.448548 9.682367 14.176483 31.227550 4.142064 0.489428 17.554279 -2.049643 -4.402777 -29.353633 0.327546 2.047741 0.000001 0.000002 -0.000000 -7.470578 6.707362 9.510342 27.557160 -3.947521 -0.782444 4.596838 -3.010374 -1.362820 -26.533255 -0.030611 0.093773 -0.000000 0.000002 0.000000 
0.645859 89.659477 -0.228790 -6.166835 41.069511 -0.098549 3.981635 2.267472 1.517961 -3.590871 1.828039 2.669517 -3.609627 1.889171 2.585042 6.964487 -17.940971 0.133208 1.475624 -17.517125 -1.575304 0.000000 0.000001 0.000000 3.741228 -3.814743 -0.375314 5.579688 -2.037371 -80.894677 -3.532772 -20.691744 -1.160162 -2.794767 0.289723 9.574358 1.178104 0.628039 -4.955031 -1.776340 1.908330 -16.763815 -1.605169 3.831894 -12.933070 -0.000003 -0.000001 -0.000002 10.703438 -0.296981 15.782195 -0.863224 26.351420 -5.888181 -4.748081 4.352392 -1.635429 0.000000 0.000000 0.000001 -0.157308 3.989580 0.416498 7.476092 7.282156 75.108216 -1.179710 18.504183 0.407644 -2.636230 -1.906442 7.636128 15.798342 -2.811224 -17.235846 -2.077417 -31.113031 7.338845 -6.633531 -3.817822 2.612773 0.000003 0.000000 -0.000001 2.356182 -3.628111 8.325465 -2.168801 -2.442363 18.512097 -1.898300 -4.831263 14.294485 0.000001 -0.000002 -0.000000 -24.902605 8.580496 14.032256 31.786888 3.714609 0.530989 17.717075 -2.030236 -4.312622 -29.401895 0.402535 1.912019 0.000001 -0.000002 -0.000001 -7.218719 7.373681 10.254632 27.506917 -5.589393 -1.278579 4.246953 -2.811808 -0.663728 -26.390586 0.386615 -0.837507 -0.000000 -0.000002 -0.000000 
0.441958 89.448380 -0.329730 -6.791486 42.671894 0.260153 4.480757 2.305564 1.468793 -3.641653 1.817965 2.762797 -3.662235 1.887979 2.673073 7.391544 -17.771608 0.045255 1.516634 -17.335094 -1.798326 0.000000 0.000000 -0.000000 3.755950 -4.281134 -0.232177 5.469020 -1.718277 -80.336521 -6.593520 -21.174257 -2.199194 -2.827567 -1.712932 10.611145 1.147283 0.573612 -4.763059 -1.740365 1.927675 -16.886997 -1.585007 3.809856 -12.767683 0.000000 -0.000001 0.000000 10.551768 -0.353738 15.474770 -0.811881 26.203437 -5.681243 -4.666107 4.439880 -1.499102 0.000001 0.000000 0.000001 -0.145656 4.179675 0.317556 6.962086 7.461028 74.845192 -0.885523 18.289727 0.344739 -2.592721 -2.293588 7.525076 15.803528 -2.845869 -17.244044 -2.076557 -31.116597 7.337690 -6.635191 -3.813608 2.614257 -0.000002 0.000000 -0.000002 2.356229 -3.627744 8.307685 -2.168819 -2.441448 18.466878 -1.899816 -4.830787 14.249151 0.000003 -0.000000 -0.000001 -25.333199 7.367277 13.651298 32.345881 3.267479 0.573313 18.058349 -2.021987 -4.168285 -29.458350 0.459448 1.786760 -0.000001 0.000000 0.000001 -6.977353 7.898692 10.708205 27.839738 -6.129869 -1.275012 3.573121 -2.368742 -0.749310 -26.191093 1.072423 -2.375115 -0.000000 0.000002 0.000000 
0.155627 89.191597 -0.482176 -7.360299 44.567234 0.628131 4.887043 2.377725 1.727467 -3.647836 1.815463 2.684704 -3.664341 1.896274 2.590563 7.877437 -17.355528 -0.190815 1.529740 -16.930378 -2.060213 -0.000000 -0.000000 -0.000000 3.758341 -4.619015 -0.149582 5.399269 -1.079461 -79.741277 -8.278855 -21.703503 -2.821629 -2.836021 -3.015980 11.651703 1.098996 0.486599 -4.457526 -1.682909 1.958135 -17.083213 -1.552696 3.775065 -12.504252 -0.000003 -0.000001 0.000000 10.311049 -0.440926 14.984566 -0.728556 25.969373 -5.351671 -4.535468 4.579561 -1.282416 -0.000000 0.000001 0.000002 -0.121808 4.611859 0.166813 6.147308 7.458196 74.781863 -0.397413 17.877651 0.125592 -2.520134 -2.955136 7.184244 15.809125 -2.901910 -17.256215 -2.074193 -31.126664 7.334474 -6.639831 -3.801767 2.618404 0.000001 0.000001 0.000001 2.355230 -3.617144 8.279150 -2.168870 -2.440014 18.394804 -1.902243 -4.830011 14.176843 0.000000 0.000001 0.000002 -26.000261 5.929948 13.091150 32.916379 2.928318 0.650189 18.580213 -2.034609 -4.013193 -29.511239 0.480195 1.715858 0.000000 0.000002 0.000000 -7.954200 9.217010 10.936448 29.122393 -2.952797 -0.244864 3.448288 -1.922781 -2.376058 -26.072601 1.585678 -3.511841 0.000000 0.000003 0.000000 
-0.238974 88.865059 -0.654690 -8.083234 46.946373 0.843969 5.459428 2.518310 2.436989 -3.683168 1.793085 2.561410 -3.690289 1.896426 2.461025 8.281119 -16.746026 -0.675872 1.305058 -16.384263 -2.307632 0.000000 0.000002 -0.000000 3.750016 -4.839758 -0.086083 5.318837 -0.656462 -79.141976 -9.001555 -22.079843 -3.134709 -2.811626 -4.335209 12.775652 1.036024 0.369701 -4.050149 -1.605961 1.998252 -17.345103 -1.509082 3.729230 -12.152787 -0.000003 -0.000000 0.000000 9.991447 -0.551290 14.329240 -0.614566 25.659965 -4.911563 -4.360794 4.766791 -0.994153 -0.000000 -0.000000 0.000001 -0.080480 5.384796 -0.029593 5.270970 7.276895 74.815884 -0.639564 17.447513 -0.006408 -2.449723 -3.624863 6.587268 15.816966 -2.976656 -17.272625 -2.066443 -31.138764 7.335153 -6.647086 -3.785929 2.621750 -0.000000 0.000000 -0.000000 2.353902 -3.602853 8.241032 -2.168905 -2.438080 18.298517 -1.902004 -4.829444 14.080499 0.000000 0.000001 -0.000001 -27.060627 4.265434 12.767848 33.799854 2.254717 0.660649 19.169800 -2.046147 -3.744410 -29.567909 0.487754 1.665323 0.000001 -0.000001 -0.000000 -9.406519 11.248732 11.919169 30.109950 5.157384 1.132152 3.878294 -3.453907 -5.215178 -25.758715 2.020829 -4.576537 -0.000000 -0.000001 0.000000 
